# AST/ASF file generated using VICON BodyLanguage
# -----------------------------------------------
:version 1.10
:name VICON
:units
  mass 1.0
  length 0.45
  angle deg
:documentation
   .ast/.asf automatically generated from VICON data using
   VICON BodyBuilder and BodyLanguage model FoxedUp or BRILLIANT.MOD
:root
   order TX TY TZ RX RY RZ
   axis XYZ
   position 0 0 0  
   orientation 0 0 0 
:bonedata
  begin
     id 1 
     name lhipjoint
     direction 0.623529 -0.717805 0.309788 
     length 2.23224 
     axis 0 0 0  XYZ
  end
  begin
     id 2 
     name lfemur
     direction 0.34202 -0.939693 0  
     length 7.11402  
     axis 0 0 20  XYZ
    dof rx ry rz
    limits (-160.0 20.0)
           (-70.0 70.0)
           (-60.0 70.0)
  end
  begin
     id 3 
     name ltibia
     direction 0.34202 -0.939693 0   
     length 6.78496   
     axis 0 0 20   XYZ
    dof rx
    limits (-10.0 170.0)
  end
  begin
     id 4 
     name lfoot
     direction 0.125078 -0.343648 0.930732   
     length 1.84054   
     axis -90 7.62852e-016 20   XYZ
    dof rx rz
    limits (-45.0 90.0)
           (-70.0 20.0)
  end
  begin
     id 5 
     name ltoes
     direction 1.53565e-011 -4.21893e-011 1   
     length 0.916474   
     axis -90 7.62852e-016 20   XYZ
    dof rx
    limits (-90.0 20.0)
  end
  begin
     id 6 
     name rhipjoint
     direction -0.564688 -0.757748 0.327026   
     length 2.11457  
     axis 0 0 0  XYZ 
  end
  begin
     id 7 
     name rfemur
     direction -0.34202 -0.939693 0   
     length 7.14609   
     axis 0 0 -20   XYZ
    dof rx ry rz
    limits (-160.0 20.0)
           (-70.0 70.0)
           (-70.0 60.0)
  end
  begin
     id 8 
     name rtibia
     direction -0.34202 -0.939693 0   
     length 6.78101   
     axis 0 0 -20   XYZ
    dof rx
    limits (-10.0 170.0)
 end
 begin
     id 9 
     name rfoot
     direction -0.0992671 -0.272734 0.956955   
     length 1.96168  
     axis -90 -7.62852e-016 -20   XYZ
    dof rx rz
    limits (-45.0 90.0)
           (-20.0 70.0)
  end
  begin
     id 10 
     name rtoes
     direction -1.5356e-011 -4.21891e-011 1   
     length 0.982933   
     axis -90 -7.62852e-016 -20   XYZ
    dof rx
    limits (-90.0 20.0)
  end
  begin
     id 11 
     name lowerback
     direction -0.00596953 0.998668 0.0512524   
     length 1.87557   
     axis 0 0 0   XYZ
    dof rx ry rz
    limits (-20.0 45.0)
           (-30.0 30.0)
           (-30.0 30.0)
  end
  begin
     id 12 
     name upperback
     direction 0.00584879 0.999652 0.0257308   
     length 1.87883   
     axis 0 0 0   XYZ
    dof rx ry rz
    limits (-20.0 45.0)
           (-30.0 30.0)
           (-30.0 30.0)
  end
  begin
     id 13 
     name thorax
     direction 0.010104 0.999947 0.00178881   
     length 1.87779   
     axis 0 0 0   XYZ
    dof rx ry rz
    limits (-20.0 45.0)
           (-30.0 30.0)
           (-30.0 30.0)
  end
  begin
     id 14 
     name lowerneck
     direction 0.0120771 0.995934 -0.0892773   
     length 1.40897   
     axis 0 0 0   XYZ
    dof rx ry rz
    limits (-20.0 45.0)
           (-30.0 30.0)
           (-30.0 30.0)
  end
  begin
     id 15 
     name upperneck
     direction -0.030568 0.999465 -0.0116366   
     length 1.38661   
     axis 0 0 0   XYZ
    dof rx ry rz
    limits (-20.0 45.0)
           (-30.0 30.0)
           (-30.0 30.0)
  end
  begin
     id 16
     name head
     direction -0.0170715 0.999854 -0.00104426  
     length 1.47052  
     axis 0 0 0   XYZ
    dof rx ry rz
    limits (-20.0 45.0)
           (-30.0 30.0)
           (-30.0 30.0)
  end
  begin
     id 17 
     name lclavicle
     direction 0.977763 0.206143 0.038532  
     length 3.02424  
     axis 0 0 0   XYZ
    dof ry rz
    limits (-20.0 10.0)
           (0.0 20.0)
  end
  begin
     id 18 
     name lhumerus
     direction 1 -4.48965e-011 -2.62654e-027   
     length 4.68382   
     axis 180 -30 -90   XYZ
    dof rx ry rz
    limits (-60.0 90.0)
           (-90.0 90.0)
           (-90.0 90.0)
  end
  begin
     id 19
     name lradius
     direction 1 -4.48973e-011 -1.54954e-027   
     length 2.98124   
     axis 180 -30 -90   XYZ
    dof rx
    limits (-10.0 170.0)
  end
  begin
     id 20
     name lwrist
     direction 1 -4.48959e-011 7.20928e-028   
     length 1.49062   
     axis -5.52449e-016 90 90   XYZ
    dof ry
    limits (-180.0 0.0)
 end
  begin
     id 21 
     name lhand
     direction 1 -4.48971e-011 1.44186e-027   
     length 0.707595   
     axis -9.20027e-016 90 90   XYZ
    dof rx rz
    limits (-90.0 90.0)
           (-45.0 45.0)
  end
  begin
     id 22 
     name lfingers
     direction 1 -4.48985e-011 2.88371e-027   
     length 0.570481   
     axis -1.84005e-015 90 90   XYZ
    dof rx
    limits (0.0 90.0)
  end
  begin
     id 23
     name lthumb
     direction 0.707107 -6.34929e-011 0.707107   
     length 0.819101   
     axis -90 45 2.85299e-015   XYZ
    dof rx rz
    limits (-45.0 45.0)
           (-45.0 45.0)
  end
  begin
     id 24 
     name rclavicle
     direction -0.958661 0.284411 -0.00895327   
     length 3.11921  
     axis 0 0 0   XYZ 
    dof ry rz
    limits (-10.0 20.0)
           (-20.0 0.0)
  end
  begin
     id 25 
     name rhumerus
     direction -1 -4.48963e-011 -4.22193e-027  
     length 4.75876   
     axis 180 30 90   XYZ
    dof rx ry rz
    limits (-90.0 60.0)
           (-90.0 90.0)
           (-90.0 90.0)
  end
  begin
     id 26 
     name rradius
     direction -1 -4.48968e-011 -1.07616e-027   
     length 2.93293   
     axis 180 30 90   XYZ
    dof rx
    limits (-10.0 170.0)
  end
  begin
     id 27 
     name rwrist
     direction -1 -4.48965e-011 7.20928e-028   
     length 1.46647   
     axis -5.52449e-016 -90 -90   XYZ
    dof ry
    limits (-180.0 0.0)
  end
  begin
     id 28
     name rhand
     direction -1 -4.48971e-011 1.44186e-027   
     length 0.831748   
     axis -9.20027e-016 -90 -90   XYZ
    dof rx rz
    limits (-90.0 90.0)
           (-45.0 45.0)
  end
  begin
     id 29
     name rfingers
     direction -1 -4.48961e-011 2.88371e-027   
     length 0.670577   
     axis -1.84005e-015 -90 -90   XYZ
    dof rx
    limits (0.0 90.0)
  end
  begin
     id 30
     name rthumb
     direction -0.707107 -6.34929e-011 0.707107   
     length 0.962818   
     axis -90 -45 -2.85299e-015   XYZ
    dof rx rz
    limits (-45.0 45.0)
           (-45.0 45.0)
  end
:hierarchy
  begin
    root lhipjoint rhipjoint lowerback
    lhipjoint lfemur
    lfemur ltibia
    ltibia lfoot
    lfoot ltoes
    rhipjoint rfemur
    rfemur rtibia
    rtibia rfoot
    rfoot rtoes
    lowerback upperback
    upperback thorax
    thorax lowerneck lclavicle rclavicle
    lowerneck upperneck
    upperneck head
    lclavicle lhumerus
    lhumerus lradius
    lradius lwrist
    lwrist lhand lthumb
    lhand lfingers
    rclavicle rhumerus
    rhumerus rradius
    rradius rwrist
    rwrist rhand rthumb
    rhand rfingers
  end

#!OML:ASF E:\id_vita\Project 1\Capture day 1\Session 1\Female.ASF
:FULLY-SPECIFIED
:DEGREES
319
root 41.6172 14.9243 -2.22543 -197.896 -82.0913 -90.1348
lowerback 7.88369 0.941619 -3.70893
upperback -0.261307 0.681048 -3.48333
thorax -4.70462 0.359614 -1.61793
lowerneck -10.0129 2.70602 -5.09324
upperneck -28.1182 4.85622 9.95902
head -7.3831 1.40296 4.18939
rclavicle 2.38542e-014 2.78299e-015
rhumerus 28.7065 26.6106 -75.174
rradius 60.178
rwrist 16.2162
rhand -43.5835 81.6761
rfingers 7.12502
rthumb -16.4203 52.3511
lclavicle 2.38542e-014 2.78299e-015
lhumerus 38.8308 -17.8505 34.6506
lradius 59.3973
lwrist -15.0383
lhand -58.6164 47.6248
lfingers 7.12502
lthumb -30.8337 75.0579
rfemur -53.3329 0.664428 41.8344
rtibia 11.1099
rfoot -26.2813 -8.81642
rtoes -13.9186
lfemur -110.403 11.3003 -15.1838
ltibia 67.7989
lfoot -16.5242 -6.84445
ltoes -2.89814
320
root 41.5895 14.9107 -2.21947 -197.832 -82.1741 -90.2381
lowerback 7.88528 0.928596 -3.70006
upperback -0.249253 0.666791 -3.45728
thorax -4.69303 0.352698 -1.59381
lowerneck -9.93149 2.71867 -5.05107
upperneck -28.1222 4.85498 9.8673
head -7.39551 1.40465 4.14897
rclavicle -7.31528e-014 -1.00983e-013
rhumerus 29.3011 26.9224 -74.5502
rradius 59.5996
rwrist 15.7822
rhand -44.1911 81.5859
rfingers 7.12502
rthumb -17.0052 52.3102
lclavicle -7.31528e-014 -1.00983e-013
lhumerus 38.8738 -17.9434 34.6255
lradius 59.3286
lwrist -15.0569
lhand -58.278 48.0495
lfingers 7.12502
lthumb -30.511 75.543
rfemur -53.2083 0.578519 41.686
rtibia 11.0869
rfoot -26.3644 -8.84179
rtoes -14.0831
lfemur -110.426 11.2156 -15.4245
ltibia 67.9881
lfoot -16.6075 -6.77713
ltoes -3.53543
321
root 41.5668 14.897 -2.21254 -198.537 -82.3359 -89.4032
lowerback 7.69595 0.858785 -3.55564
upperback -0.292052 0.59909 -3.44855
thorax -4.62918 0.31637 -1.65474
lowerneck -9.73977 2.7757 -4.847
upperneck -28.1472 4.89924 9.70447
head -7.43258 1.41508 4.05285
rclavicle -1.27222e-014 -5.48646e-014
rhumerus 28.6383 26.6547 -75.0669
rradius 59.9295
rwrist 16.1092
rhand -44.6414 80.6159
rfingers 7.12502
rthumb -17.4385 51.3781
lclavicle -1.27222e-014 -5.48646e-014
lhumerus 38.6477 -18.0044 34.8321
lradius 59.4154
lwrist -15.5223
lhand -58.1485 49.1563
lfingers 7.12502
lthumb -30.3875 76.6727
rfemur -53.2893 0.546259 41.5402
rtibia 11.0341
rfoot -26.1945 -9.03689
rtoes -14.1165
lfemur -110.634 11.0584 -15.6136
ltibia 68.1798
lfoot -16.7831 -6.87107
ltoes -3.40543
322
root 41.5327 14.8948 -2.21088 -199.018 -82.3473 -89.0294
lowerback 7.76916 0.828464 -3.4605
upperback -0.300641 0.561446 -3.46741
thorax -4.67828 0.295537 -1.72486
lowerneck -9.56929 2.82536 -4.78031
upperneck -28.1126 4.97996 9.74054
head -7.45398 1.44549 4.047
rclavicle -1.43125e-014 -3.10104e-014
rhumerus 27.46 26.24 -76.1634
rradius 60.5883
rwrist 16.8555
rhand -45.2355 79.709
rfingers 7.12502
rthumb -18.0103 50.5229
lclavicle -1.43125e-014 -3.10104e-014
lhumerus 38.2892 -18.1296 34.8977
lradius 59.6723
lwrist -15.7797
lhand -57.8629 48.5211
lfingers 7.12502
lthumb -30.1151 76.0874
rfemur -53.0231 0.540426 41.4355
rtibia 10.9514
rfoot -26.0602 -9.30338
rtoes -14.4178
lfemur -110.54 11.0887 -15.8471
ltibia 68.3924
lfoot -17.1088 -6.96381
ltoes -3.82618
323
root 41.4994 14.888 -2.20558 -199.626 -82.2921 -88.4237
lowerback 7.74102 0.805463 -3.26692
upperback -0.321025 0.550043 -3.47548
thorax -4.68145 0.285685 -1.84035
lowerneck -9.63149 2.83657 -4.76722
upperneck -27.9008 5.00603 9.81813
head -7.37335 1.46358 4.06464
rclavicle 4.45278e-014 1.43125e-014
rhumerus 27.9656 26.4616 -75.8622
rradius 60.2548
rwrist 16.8958
rhand -45.6427 79.2758
rfingers 7.12502
rthumb -18.402 50.1262
lclavicle 4.45278e-014 1.43125e-014
lhumerus 38.0652 -18.2277 34.8729
lradius 59.8427
lwrist -15.6355
lhand -57.9392 48.3966
lfingers 7.12502
lthumb -30.1879 75.9496
rfemur -52.7928 0.448745 41.5582
rtibia 10.7853
rfoot -26.1186 -9.337
rtoes -14.7611
lfemur -110.596 11.1531 -16.0265
ltibia 68.6578
lfoot -17.4164 -6.96519
ltoes -3.23036
324
root 41.4725 14.8751 -2.20022 -199.837 -82.1853 -88.2257
lowerback 7.69468 0.796217 -3.0603
upperback -0.291207 0.558248 -3.52241
thorax -4.62134 0.283728 -2.00483
lowerneck -9.89534 2.85737 -4.80177
upperneck -27.6026 5.06165 9.99558
head -7.23567 1.49918 4.1248
rclavicle -7.95139e-015 1.94809e-014
rhumerus 27.5691 26.1923 -76.394
rradius 60.5171
rwrist 16.9495
rhand -46.1262 78.7784
rfingers 7.12502
rthumb -18.867 49.6734
lclavicle -7.95139e-015 1.94809e-014
lhumerus 38.1037 -18.2398 34.6235
lradius 59.8469
lwrist -15.2578
lhand -58.1054 48.9127
lfingers 7.12502
lthumb -30.3464 76.4367
rfemur -52.4956 0.552882 41.4982
rtibia 10.5185
rfoot -26.0012 -9.42982
rtoes -15.0365
lfemur -110.677 11.2675 -16.1015
ltibia 68.9939
lfoot -17.524 -6.93148
ltoes -4.42714
325
root 41.4441 14.8618 -2.19592 -200.022 -82.0904 -88.1707
lowerback 7.76748 0.82125 -2.93415
upperback -0.241534 0.59984 -3.54563
thorax -4.60829 0.300669 -2.10523
lowerneck -10.0366 2.87712 -4.89892
upperneck -27.3965 5.13435 10.2237
head -7.15356 1.53979 4.21404
rclavicle 4.77083e-014 5.24792e-014
rhumerus 27.1327 25.9706 -76.8579
rradius 60.7544
rwrist 17.0331
rhand -46.4887 77.8813
rfingers 7.12502
rthumb -19.2157 48.8106
lclavicle 4.77083e-014 5.24792e-014
lhumerus 38.1375 -18.3309 34.4928
lradius 59.8862
lwrist -15.0428
lhand -58.3387 49.4503
lfingers 7.12502
lthumb -30.5689 76.933
rfemur -52.1276 0.611889 41.4138
rtibia 10.351
rfoot -25.9378 -9.54742
rtoes -15.5088
lfemur -110.575 11.38 -16.1138
ltibia 69.3013
lfoot -17.8077 -7.00878
ltoes -4.30822
326
root 41.4115 14.8481 -2.19175 -200.703 -81.9545 -87.6241
lowerback 7.83543 0.860942 -2.80816
upperback -0.228533 0.664133 -3.51373
thorax -4.63071 0.33049 -2.15135
lowerneck -9.8611 2.9165 -4.93451
upperneck -27.3993 5.22478 10.353
head -7.19326 1.57568 4.25927
rclavicle -3.97569e-014 -5.28767e-014
rhumerus 27.1247 26.1603 -76.7159
rradius 60.6326
rwrist 16.5791
rhand -46.8752 76.7251
rfingers 7.12502
rthumb -19.5873 47.6919
lclavicle -3.97569e-014 -5.28767e-014
lhumerus 38.0913 -18.4629 34.7296
lradius 59.905
lwrist -14.9713
lhand -58.6855 50.1127
lfingers 7.12502
lthumb -30.8996 77.5333
rfemur -51.8067 0.511277 41.5911
rtibia 10.3444
rfoot -25.9968 -9.67736
rtoes -16.4131
lfemur -110.451 11.5196 -16.1235
ltibia 69.5891
lfoot -18.0827 -7.1232
ltoes -4.53684
327
root 41.382 14.8445 -2.18065 -202.41 -82.3436 -85.7248
lowerback 7.64563 0.706057 -2.58876
upperback -0.309643 0.487457 -3.49616
thorax -4.6091 0.239124 -2.23356
lowerneck -9.68832 2.92965 -4.89329
upperneck -27.3589 5.25414 10.3977
head -7.20949 1.58311 4.26233
rclavicle -2.8625e-014 1.82882e-014
rhumerus 26.8784 26.2057 -76.772
rradius 60.6176
rwrist 16.6673
rhand -46.4397 74.9282
rfingers 7.12502
rthumb -19.1686 45.8529
lclavicle -2.8625e-014 1.82882e-014
lhumerus 38.0234 -18.6176 35.1117
lradius 59.6989
lwrist -15.4146
lhand -58.6861 49.6975
lfingers 7.12502
lthumb -30.9001 77.1179
rfemur -52.0079 0.468245 41.2244
rtibia 10.3042
rfoot -25.6054 -10.2253
rtoes -16.7629
lfemur -110.677 11.0959 -16.4266
ltibia 69.7173
lfoot -18.12 -7.37282
ltoes -4.58769
328
root 41.3473 14.8334 -2.17278 -203.516 -82.5814 -84.6589
lowerback 7.67648 0.582401 -2.46773
upperback -0.324951 0.331897 -3.49221
thorax -4.64463 0.159415 -2.28026
lowerneck -9.99766 2.91754 -4.96255
upperneck -26.9177 5.24421 10.5206
head -7.01089 1.60582 4.30796
rclavicle 1.90833e-014 1.66979e-014
rhumerus 26.6512 26.2934 -76.95
rradius 60.613
rwrist 17.0582
rhand -46.4428 72.9088
rfingers 7.12502
rthumb -19.1715 43.8337
lclavicle 1.90833e-014 1.66979e-014
lhumerus 37.8036 -18.6682 35.2307
lradius 59.6551
lwrist -15.723
lhand -58.4204 49.3754
lfingers 7.12502
lthumb -30.6469 76.8436
rfemur -51.8058 0.574517 40.7262
rtibia 10.0896
rfoot -25.3063 -10.6359
rtoes -16.5638
lfemur -110.646 10.8502 -16.6239
ltibia 69.88
lfoot -18.0455 -7.58267
ltoes -3.78262
